<mxfile host="app.diagrams.net" agent="Mozilla/5.0 (Windows NT 10.0; Win64; x64) AppleWebKit/537.36 (KHTML, like Gecko) Chrome/139.0.0.0 Safari/537.36" version="28.1.1" pages="3">
  <diagram name="Página-1" id="UBYLL-i0i58FipoBy9Gy">
    <mxGraphModel dx="1042" dy="527" grid="1" gridSize="10" guides="1" tooltips="1" connect="1" arrows="1" fold="1" page="1" pageScale="1" pageWidth="827" pageHeight="1169" math="0" shadow="0">
      <root>
        <mxCell id="0" />
        <mxCell id="1" parent="0" />
        <mxCell id="YxUcyMV5Zls7hrRSlXjq-9" style="edgeStyle=orthogonalEdgeStyle;rounded=0;orthogonalLoop=1;jettySize=auto;html=1;exitX=0;exitY=0.5;exitDx=0;exitDy=0;entryX=1;entryY=0.5;entryDx=0;entryDy=0;startArrow=none;startFill=0;endArrow=none;endFill=0;" edge="1" parent="1" source="O3xiydoRjur9sQLuxTn1-1" target="YxUcyMV5Zls7hrRSlXjq-6">
          <mxGeometry relative="1" as="geometry" />
        </mxCell>
        <mxCell id="O3xiydoRjur9sQLuxTn1-1" value="Medico" style="whiteSpace=wrap;html=1;align=center;" parent="1" vertex="1">
          <mxGeometry x="360" y="40" width="120" height="40" as="geometry" />
        </mxCell>
        <mxCell id="YxUcyMV5Zls7hrRSlXjq-7" style="edgeStyle=orthogonalEdgeStyle;rounded=0;orthogonalLoop=1;jettySize=auto;html=1;exitX=1;exitY=0.5;exitDx=0;exitDy=0;entryX=0;entryY=0.5;entryDx=0;entryDy=0;startArrow=none;startFill=0;endArrow=none;endFill=0;" edge="1" parent="1" source="O3xiydoRjur9sQLuxTn1-4" target="YxUcyMV5Zls7hrRSlXjq-6">
          <mxGeometry relative="1" as="geometry" />
        </mxCell>
        <mxCell id="YxUcyMV5Zls7hrRSlXjq-13" style="edgeStyle=orthogonalEdgeStyle;rounded=0;orthogonalLoop=1;jettySize=auto;html=1;exitX=1;exitY=0.75;exitDx=0;exitDy=0;entryX=0;entryY=0.5;entryDx=0;entryDy=0;startArrow=none;startFill=0;endArrow=none;endFill=0;" edge="1" parent="1" source="O3xiydoRjur9sQLuxTn1-4" target="YxUcyMV5Zls7hrRSlXjq-12">
          <mxGeometry relative="1" as="geometry" />
        </mxCell>
        <mxCell id="YxUcyMV5Zls7hrRSlXjq-16" style="edgeStyle=orthogonalEdgeStyle;rounded=0;orthogonalLoop=1;jettySize=auto;html=1;exitX=1;exitY=1;exitDx=0;exitDy=0;entryX=0;entryY=0.5;entryDx=0;entryDy=0;startArrow=none;startFill=0;endArrow=none;endFill=0;" edge="1" parent="1" source="O3xiydoRjur9sQLuxTn1-4" target="YxUcyMV5Zls7hrRSlXjq-15">
          <mxGeometry relative="1" as="geometry" />
        </mxCell>
        <mxCell id="O3xiydoRjur9sQLuxTn1-4" value="Consulta" style="whiteSpace=wrap;html=1;align=center;" parent="1" vertex="1">
          <mxGeometry x="40" y="40" width="120" height="40" as="geometry" />
        </mxCell>
        <mxCell id="YxUcyMV5Zls7hrRSlXjq-17" style="edgeStyle=orthogonalEdgeStyle;rounded=0;orthogonalLoop=1;jettySize=auto;html=1;exitX=0;exitY=0.5;exitDx=0;exitDy=0;entryX=1;entryY=0.5;entryDx=0;entryDy=0;startArrow=none;startFill=0;endArrow=none;endFill=0;" edge="1" parent="1" source="O3xiydoRjur9sQLuxTn1-5" target="YxUcyMV5Zls7hrRSlXjq-15">
          <mxGeometry relative="1" as="geometry" />
        </mxCell>
        <mxCell id="O3xiydoRjur9sQLuxTn1-5" value="Paciente" style="whiteSpace=wrap;html=1;align=center;" parent="1" vertex="1">
          <mxGeometry x="360" y="430" width="120" height="40" as="geometry" />
        </mxCell>
        <mxCell id="YxUcyMV5Zls7hrRSlXjq-14" style="edgeStyle=orthogonalEdgeStyle;rounded=0;orthogonalLoop=1;jettySize=auto;html=1;exitX=0;exitY=0.5;exitDx=0;exitDy=0;entryX=1;entryY=0.5;entryDx=0;entryDy=0;startArrow=none;startFill=0;endArrow=none;endFill=0;" edge="1" parent="1" source="O3xiydoRjur9sQLuxTn1-7" target="YxUcyMV5Zls7hrRSlXjq-12">
          <mxGeometry relative="1" as="geometry" />
        </mxCell>
        <mxCell id="O3xiydoRjur9sQLuxTn1-7" value="Clinica" style="whiteSpace=wrap;html=1;align=center;" parent="1" vertex="1">
          <mxGeometry x="360" y="230" width="120" height="40" as="geometry" />
        </mxCell>
        <mxCell id="YxUcyMV5Zls7hrRSlXjq-6" value="tem" style="shape=rhombus;perimeter=rhombusPerimeter;whiteSpace=wrap;html=1;align=center;" vertex="1" parent="1">
          <mxGeometry x="200" y="30" width="120" height="60" as="geometry" />
        </mxCell>
        <mxCell id="YxUcyMV5Zls7hrRSlXjq-12" value="tem" style="shape=rhombus;perimeter=rhombusPerimeter;whiteSpace=wrap;html=1;align=center;" vertex="1" parent="1">
          <mxGeometry x="200" y="220" width="120" height="60" as="geometry" />
        </mxCell>
        <mxCell id="YxUcyMV5Zls7hrRSlXjq-15" value="tem" style="shape=rhombus;perimeter=rhombusPerimeter;whiteSpace=wrap;html=1;align=center;" vertex="1" parent="1">
          <mxGeometry x="200" y="420" width="120" height="60" as="geometry" />
        </mxCell>
      </root>
    </mxGraphModel>
  </diagram>
  <diagram id="V7pVnVET8byVA8gPRmN7" name="TechMarket">
    <mxGraphModel dx="1042" dy="527" grid="1" gridSize="10" guides="1" tooltips="1" connect="1" arrows="1" fold="1" page="1" pageScale="1" pageWidth="827" pageHeight="1169" math="0" shadow="0">
      <root>
        <mxCell id="0" />
        <mxCell id="1" parent="0" />
        <mxCell id="Jo_X8NEjLVWaoLH6w2zr-1" value="Pagamento" style="whiteSpace=wrap;html=1;align=center;" vertex="1" parent="1">
          <mxGeometry x="680" y="40" width="120" height="40" as="geometry" />
        </mxCell>
        <mxCell id="Jo_X8NEjLVWaoLH6w2zr-16" style="edgeStyle=orthogonalEdgeStyle;rounded=0;orthogonalLoop=1;jettySize=auto;html=1;exitX=0.5;exitY=1;exitDx=0;exitDy=0;entryX=0.5;entryY=0;entryDx=0;entryDy=0;endArrow=none;endFill=0;" edge="1" parent="1" source="Jo_X8NEjLVWaoLH6w2zr-2" target="Jo_X8NEjLVWaoLH6w2zr-15">
          <mxGeometry relative="1" as="geometry" />
        </mxCell>
        <mxCell id="Jo_X8NEjLVWaoLH6w2zr-24" style="edgeStyle=orthogonalEdgeStyle;rounded=0;orthogonalLoop=1;jettySize=auto;html=1;exitX=1;exitY=0.5;exitDx=0;exitDy=0;entryX=0;entryY=0.5;entryDx=0;entryDy=0;endArrow=none;endFill=0;" edge="1" parent="1" source="Jo_X8NEjLVWaoLH6w2zr-2" target="Jo_X8NEjLVWaoLH6w2zr-21">
          <mxGeometry relative="1" as="geometry" />
        </mxCell>
        <mxCell id="Jo_X8NEjLVWaoLH6w2zr-2" value="Pedido" style="whiteSpace=wrap;html=1;align=center;" vertex="1" parent="1">
          <mxGeometry x="360" y="40" width="120" height="40" as="geometry" />
        </mxCell>
        <mxCell id="Jo_X8NEjLVWaoLH6w2zr-3" value="Produto" style="whiteSpace=wrap;html=1;align=center;" vertex="1" parent="1">
          <mxGeometry x="40" y="240" width="120" height="40" as="geometry" />
        </mxCell>
        <mxCell id="Jo_X8NEjLVWaoLH6w2zr-17" style="edgeStyle=orthogonalEdgeStyle;rounded=0;orthogonalLoop=1;jettySize=auto;html=1;exitX=0.5;exitY=0;exitDx=0;exitDy=0;entryX=0.5;entryY=1;entryDx=0;entryDy=0;endArrow=none;endFill=0;" edge="1" parent="1" source="Jo_X8NEjLVWaoLH6w2zr-4" target="Jo_X8NEjLVWaoLH6w2zr-15">
          <mxGeometry relative="1" as="geometry" />
        </mxCell>
        <mxCell id="Jo_X8NEjLVWaoLH6w2zr-19" style="edgeStyle=orthogonalEdgeStyle;rounded=0;orthogonalLoop=1;jettySize=auto;html=1;exitX=0;exitY=0.5;exitDx=0;exitDy=0;entryX=1;entryY=0.5;entryDx=0;entryDy=0;endArrow=none;endFill=0;" edge="1" parent="1" source="Jo_X8NEjLVWaoLH6w2zr-4" target="Jo_X8NEjLVWaoLH6w2zr-18">
          <mxGeometry relative="1" as="geometry" />
        </mxCell>
        <mxCell id="Jo_X8NEjLVWaoLH6w2zr-4" value="Item_do_Pedido" style="whiteSpace=wrap;html=1;align=center;" vertex="1" parent="1">
          <mxGeometry x="360" y="240" width="120" height="40" as="geometry" />
        </mxCell>
        <mxCell id="Jo_X8NEjLVWaoLH6w2zr-8" style="edgeStyle=orthogonalEdgeStyle;rounded=0;orthogonalLoop=1;jettySize=auto;html=1;exitX=1;exitY=0.5;exitDx=0;exitDy=0;entryX=0;entryY=0.5;entryDx=0;entryDy=0;endArrow=none;endFill=0;" edge="1" parent="1" source="Jo_X8NEjLVWaoLH6w2zr-5" target="Jo_X8NEjLVWaoLH6w2zr-6">
          <mxGeometry relative="1" as="geometry" />
        </mxCell>
        <mxCell id="Jo_X8NEjLVWaoLH6w2zr-5" value="Cliente" style="whiteSpace=wrap;html=1;align=center;" vertex="1" parent="1">
          <mxGeometry x="40" y="40" width="120" height="40" as="geometry" />
        </mxCell>
        <mxCell id="Jo_X8NEjLVWaoLH6w2zr-14" style="edgeStyle=orthogonalEdgeStyle;rounded=0;orthogonalLoop=1;jettySize=auto;html=1;exitX=1;exitY=0.5;exitDx=0;exitDy=0;entryX=0;entryY=0.5;entryDx=0;entryDy=0;endArrow=none;endFill=0;" edge="1" parent="1" source="Jo_X8NEjLVWaoLH6w2zr-6" target="Jo_X8NEjLVWaoLH6w2zr-2">
          <mxGeometry relative="1" as="geometry" />
        </mxCell>
        <mxCell id="Jo_X8NEjLVWaoLH6w2zr-6" value="faz" style="shape=rhombus;perimeter=rhombusPerimeter;whiteSpace=wrap;html=1;align=center;" vertex="1" parent="1">
          <mxGeometry x="200" y="30" width="120" height="60" as="geometry" />
        </mxCell>
        <mxCell id="Jo_X8NEjLVWaoLH6w2zr-15" value="adiciona" style="shape=rhombus;perimeter=rhombusPerimeter;whiteSpace=wrap;html=1;align=center;" vertex="1" parent="1">
          <mxGeometry x="360" y="130" width="120" height="60" as="geometry" />
        </mxCell>
        <mxCell id="Jo_X8NEjLVWaoLH6w2zr-20" style="edgeStyle=orthogonalEdgeStyle;rounded=0;orthogonalLoop=1;jettySize=auto;html=1;exitX=0;exitY=0.5;exitDx=0;exitDy=0;entryX=1;entryY=0.5;entryDx=0;entryDy=0;endArrow=none;endFill=0;" edge="1" parent="1" source="Jo_X8NEjLVWaoLH6w2zr-18" target="Jo_X8NEjLVWaoLH6w2zr-3">
          <mxGeometry relative="1" as="geometry" />
        </mxCell>
        <mxCell id="Jo_X8NEjLVWaoLH6w2zr-18" value="é" style="shape=rhombus;perimeter=rhombusPerimeter;whiteSpace=wrap;html=1;align=center;" vertex="1" parent="1">
          <mxGeometry x="200" y="230" width="120" height="60" as="geometry" />
        </mxCell>
        <mxCell id="Jo_X8NEjLVWaoLH6w2zr-25" style="edgeStyle=orthogonalEdgeStyle;rounded=0;orthogonalLoop=1;jettySize=auto;html=1;exitX=1;exitY=0.5;exitDx=0;exitDy=0;entryX=0;entryY=0.5;entryDx=0;entryDy=0;endArrow=none;endFill=0;" edge="1" parent="1" source="Jo_X8NEjLVWaoLH6w2zr-21" target="Jo_X8NEjLVWaoLH6w2zr-1">
          <mxGeometry relative="1" as="geometry" />
        </mxCell>
        <mxCell id="Jo_X8NEjLVWaoLH6w2zr-21" value="faz" style="shape=rhombus;perimeter=rhombusPerimeter;whiteSpace=wrap;html=1;align=center;" vertex="1" parent="1">
          <mxGeometry x="520" y="30" width="120" height="60" as="geometry" />
        </mxCell>
      </root>
    </mxGraphModel>
  </diagram>
  <diagram id="lpKtvTN2CUO-jTS81jG5" name="Página-3">
    <mxGraphModel dx="1042" dy="527" grid="1" gridSize="10" guides="1" tooltips="1" connect="1" arrows="1" fold="1" page="1" pageScale="1" pageWidth="827" pageHeight="1169" math="0" shadow="0">
      <root>
        <mxCell id="0" />
        <mxCell id="1" parent="0" />
      </root>
    </mxGraphModel>
  </diagram>
</mxfile>
